<svg width="15" height="8" viewBox="0 0 15 8" fill="#000" xmlns="http://www.w3.org/2000/svg">
<path d="M7.5 4.5C8.51875 4.5 9.41875 4.76 10.15 5.1C10.825 5.42 11.25 6.14 11.25 6.92V7.33333C11.25 7.7 10.9688 8 10.625 8H4.375C4.03125 8 3.75 7.7 3.75 7.33333V6.92667C3.75 6.14 4.175 5.42 4.85 5.10667C5.58125 4.76 6.48125 4.5 7.5 4.5ZM2.5 4.66667C3.1875 4.66667 3.75 4.06667 3.75 3.33333C3.75 2.6 3.1875 2 2.5 2C1.8125 2 1.25 2.6 1.25 3.33333C1.25 4.06667 1.8125 4.66667 2.5 4.66667ZM3.20625 5.4C2.975 5.36 2.74375 5.33333 2.5 5.33333C1.88125 5.33333 1.29375 5.47333 0.7625 5.72C0.53607 5.82324 0.343077 5.99518 0.207511 6.21445C0.0719454 6.43373 -0.000214804 6.69067 4.80309e-07 6.95333V7.33333C4.80309e-07 7.7 0.28125 8 0.625 8H2.8125V6.92667C2.8125 6.37333 2.95625 5.85333 3.20625 5.4V5.4ZM12.5 4.66667C13.1875 4.66667 13.75 4.06667 13.75 3.33333C13.75 2.6 13.1875 2 12.5 2C11.8125 2 11.25 2.6 11.25 3.33333C11.25 4.06667 11.8125 4.66667 12.5 4.66667ZM15 6.95333C15 6.41333 14.7 5.93333 14.2375 5.72C13.6895 5.46492 13.0979 5.33329 12.5 5.33333C12.2563 5.33333 12.025 5.36 11.7938 5.4C12.0438 5.85333 12.1875 6.37333 12.1875 6.92667V8H14.375C14.7188 8 15 7.7 15 7.33333V6.95333ZM7.5 0C8.5375 0 9.375 0.893333 9.375 2C9.375 3.10667 8.5375 4 7.5 4C6.4625 4 5.625 3.10667 5.625 2C5.625 0.893333 6.4625 0 7.5 0Z" fill="black"/>
</svg>
