<svg width="7" height="7" viewBox="0 0 7 7" fill="#000" xmlns="http://www.w3.org/2000/svg">
<path opacity="0.65" d="M1.40778 3.02944C1.96778 4.13 2.87 5.03222 3.97056 5.59222L4.82611 4.73667C4.935 4.62778 5.08667 4.59667 5.22278 4.63944C5.65833 4.78333 6.125 4.86111 6.61111 4.86111C6.71425 4.86111 6.81317 4.90208 6.8861 4.97501C6.95903 5.04794 7 5.14686 7 5.25V6.61111C7 6.71425 6.95903 6.81317 6.8861 6.8861C6.81317 6.95903 6.71425 7 6.61111 7C4.85774 7 3.17617 6.30347 1.93635 5.06365C0.696526 3.82383 0 2.14226 0 0.388889C0 0.285749 0.0409721 0.186834 0.113903 0.113903C0.186834 0.0409721 0.285749 0 0.388889 0H1.75C1.85314 0 1.95205 0.0409721 2.02499 0.113903C2.09792 0.186834 2.13889 0.285749 2.13889 0.388889C2.13889 0.875 2.21667 1.34167 2.36056 1.77722C2.40333 1.91333 2.37222 2.065 2.26333 2.17389L1.40778 3.02944Z" fill="black"/>
</svg>
