<svg width="21" height="18" viewBox="0 0 21 18" fill="#000" xmlns="http://www.w3.org/2000/svg">
<g opacity="0.56">
<path d="M5.43332 14.129C3.60995 12.819 2.16708 11.115 1.35175 10.039C1.12376 9.74198 1 9.37659 1 9.0005C1 8.62441 1.12376 8.25902 1.35175 7.962C2.82724 6.013 6.36723 2 10.5002 2C12.3542 2 14.0876 2.807 15.57 3.874" stroke="black" stroke-width="2" stroke-linecap="round" stroke-linejoin="round"/>
<path d="M12.6058 6.88846C12.3314 6.60613 12.0044 6.38157 11.6438 6.22775C11.2831 6.07392 10.896 5.99387 10.5046 5.99221C10.1132 5.99055 9.72538 6.06732 9.36348 6.21808C9.00157 6.36885 8.67274 6.59062 8.39597 6.87062C8.11919 7.15061 7.89994 7.48329 7.75086 7.84946C7.60178 8.21562 7.52582 8.60803 7.52737 9.00405C7.52891 9.40007 7.60794 9.79186 7.75987 10.1568C7.91181 10.5218 8.13365 10.8527 8.41261 11.1305" stroke="black" stroke-width="2" stroke-linecap="round" stroke-linejoin="round"/>
<path d="M2.59375 17L18.4061 1" stroke="black" stroke-width="2" stroke-linecap="round" stroke-linejoin="round"/>
<path d="M8.52344 15.704C9.16503 15.8972 9.83058 15.9969 10.5 16C14.6329 16 18.1729 11.987 19.6484 10.038C19.8763 9.74071 20 9.37509 19.9998 8.99883C19.9996 8.62256 19.8756 8.25707 19.6474 7.96C19.1289 7.27549 18.5726 6.62112 17.9812 6" stroke="black" stroke-width="2" stroke-linecap="round" stroke-linejoin="round"/>
</g>
</svg>
